<?xml version="1.0" encoding="UTF-8" standalone="no"?>
<!-- Generator: Adobe Illustrator 15.0.0, SVG Export Plug-In . SVG Version: 6.00 Build 0)  -->

<svg
   xmlns:dc="http://purl.org/dc/elements/1.1/"
   xmlns:cc="http://creativecommons.org/ns#"
   xmlns:rdf="http://www.w3.org/1999/02/22-rdf-syntax-ns#"
   xmlns:svg="http://www.w3.org/2000/svg"
   xmlns="http://www.w3.org/2000/svg"
   xmlns:sodipodi="http://sodipodi.sourceforge.net/DTD/sodipodi-0.dtd"
   xmlns:inkscape="http://www.inkscape.org/namespaces/inkscape"
   version="1.1"
   id="category_B1"
   class="drivinglicence"
   x="0px"
   y="0px"
   width="26"
   height="20"
   viewBox="0 0 26 20"
   enable-background="new 0 0 26 20"
   xml:space="preserve"
   inkscape:version="0.48.2 r9819"
   sodipodi:docname="category_b1.svg"><metadata
   id="metadata29"><rdf:RDF><cc:Work
       rdf:about=""><dc:format>image/svg+xml</dc:format><dc:type
         rdf:resource="http://purl.org/dc/dcmitype/StillImage" /><dc:title /></cc:Work></rdf:RDF></metadata><defs
   id="defs27" /><sodipodi:namedview
   pagecolor="#ffffff"
   bordercolor="#666666"
   borderopacity="1"
   objecttolerance="10"
   gridtolerance="10"
   guidetolerance="10"
   inkscape:pageopacity="0"
   inkscape:pageshadow="2"
   inkscape:window-width="1366"
   inkscape:window-height="706"
   id="namedview25"
   showgrid="false"
   inkscape:zoom="2.0976562"
   inkscape:cx="17.705922"
   inkscape:cy="6.5716455"
   inkscape:window-x="-8"
   inkscape:window-y="-8"
   inkscape:window-maximized="1"
   inkscape:current-layer="category_B1"
   showguides="true"
   inkscape:guide-bbox="true" />
<g
   id="g15"
   transform="translate(0.025,-5.85)">
	<circle
   cx="19.5"
   cy="23.5"
   r="2.313"
   id="circle17"
   d="m 21.813,23.5 c 0,1.277435 -1.035565,2.313 -2.313,2.313 -1.277435,0 -2.313,-1.035565 -2.313,-2.313 0,-1.277435 1.035565,-2.313 2.313,-2.313 1.277435,0 2.313,1.035565 2.313,2.313 z"
   sodipodi:cx="19.5"
   sodipodi:cy="23.5"
   sodipodi:rx="2.313"
   sodipodi:ry="2.313"
   class="fill"
   style="fill:#000000" />
</g>
<g
   id="g19"
   transform="translate(0.025,-5.85)">
	<circle
   cx="6.5"
   cy="23.5"
   r="2.313"
   id="circle21"
   d="m 8.813,23.5 c 0,1.277435 -1.0355654,2.313 -2.313,2.313 -1.2774346,0 -2.313,-1.035565 -2.313,-2.313 0,-1.277435 1.0355654,-2.313 2.313,-2.313 1.2774346,0 2.313,1.035565 2.313,2.313 z"
   sodipodi:cx="6.5"
   sodipodi:cy="23.5"
   sodipodi:rx="2.313"
   sodipodi:ry="2.313"
   class="fill"
   style="fill:#000000" />
</g>
<path
   class="fill"
   style="fill:#000000"
   d="m 14,3.125 c -0.551,0 -1,0.449001 -1,1 l 0,1.03125 -1.96875,0 c -0.551,0 -1.23625,0.265 -1.53125,0.625 0,0 -1.8695,2.3365 -2.6875,3.3125 -0.898,1.072 -0.89025,1.0625 -1.78125,1.0625 -3.973,0 -5,3.007 -5,4 l 0,2 c 0,0.551 0.449,1 1,1 l 2,0 c 0.245,-1.723 1.71,-3.0625 3.5,-3.0625 1.79,0 3.255,1.3395 3.5,3.0625 l 6,0 c 0.0015,-0.01036 -0.0016,-0.02092 0,-0.03125 l 0.09375,0 c 0.18375,-1.29225 1.069641,-2.356547 2.25,-2.8125 0.196727,-0.07599 0.41299,-0.116408 0.625,-0.15625 0.174008,-0.02645 0.349736,-0.0625 0.53125,-0.0625 0.22375,0 0.44424,0.02266 0.65625,0.0625 1.484068,0.278893 2.629375,1.492375 2.84375,3 l 2,0 c 0.03511,0 0.05955,-0.02769 0.09375,-0.03125 0.03156,-0.0033 0.06311,0.0062 0.09375,0 0.508057,-0.04672 0.90625,-0.480053 0.90625,-1 l 0,-12 c 0,-0.550999 -0.449,-1 -1,-1 L 14,3.125 z m -2.625,4.03125 1.625,0 0,3 -4.59375,0 2.21875,-2.75 c 0.082,-0.094 0.449,-0.25 0.75,-0.25 z"
   id="path23"
   inkscape:connector-curvature="0" />

</svg>