<?xml version="1.0" encoding="utf-8"?>
<!-- Generator: Adobe Illustrator 15.0.0, SVG Export Plug-In . SVG Version: 6.00 Build 0)  -->
<!DOCTYPE svg PUBLIC "-//W3C//DTD SVG 1.1//EN" "http://www.w3.org/Graphics/SVG/1.1/DTD/svg11.dtd">
<svg xmlns="http://www.w3.org/2000/svg" xmlns:xlink="http://www.w3.org/1999/xlink" version="1.1" class="drivinglicence" id="infoicon" x="0px" y="0px" width="26px" height="26px" viewBox="0 0 26 26" enable-background="new 0 0 26 26" xml:space="preserve">
<rect class="fill" x="902" y="1469" fill="#000000" width="26" height="2"/>
<rect class="fill" x="902" y="1489" fill="#000000" width="26" height="2"/>
<rect class="fill" x="906" y="1474" fill="#000000" width="18" height="2"/>
<rect class="fill" x="902" y="1479" fill="#000000" width="26" height="2"/>
<rect class="fill" x="906" y="1484" fill="#000000" width="18" height="2"/>
<rect class="stroke" x="902" y="1467" fill="none" width="26" height="26"/>

<path class="fill" fill="#000000" d="M12.816,25.077l1.482-3.714c0.203-0.506-0.044-1.078-0.549-1.281l-1.418-0.566l-2.213,5.546l1.416,0.565  C12.041,25.829,12.613,25.584,12.816,25.077z"/>
<path class="fill" fill="#000000" d="M1.686,20.632l1.483-3.715c0.202-0.505,0.776-0.751,1.28-0.549l1.418,0.566l-2.215,5.544l-1.417-0.566  C1.729,21.711,1.484,21.138,1.686,20.632z"/>
<g>
	<path class="fill" fill="#000000" d="M19.991,3C19.896,1.143,16.286,0.02,13,0.02S6.104,1.143,6.009,3H19.991z"/>
	<path class="fill" fill="#000000" d="M6,4v6.496c0,0,1.822-0.729,7-0.729s7,0.729,7,0.729V4H6z M13,8.667c-0.922,0-1.667-0.747-1.667-1.667   c0-0.921,0.745-1.667,1.667-1.667S14.667,6.079,14.667,7C14.667,7.92,13.922,8.667,13,8.667z"/>
</g>
<g>
	<g>
		<path class="fill" fill="#000000" d="M7.998,17.999L7.998,17.999c0.38,0,0.755,0.072,1.114,0.216c0.745,0.298,1.33,0.867,1.646,1.602    c0.315,0.736,0.325,1.552,0.027,2.297c-0.458,1.147-1.552,1.889-2.786,1.889c-0.38,0-0.754-0.072-1.112-0.216    c-1.535-0.612-2.286-2.362-1.674-3.898C5.671,18.74,6.765,17.999,7.998,17.999 M7.998,15.999c-1.984,0-3.86,1.19-4.643,3.146    c-1.021,2.563,0.223,5.474,2.79,6.498c0.608,0.243,1.236,0.358,1.854,0.358c1.985,0,3.862-1.192,4.644-3.146    c1.025-2.567-0.221-5.473-2.789-6.498C9.244,16.114,8.616,15.999,7.998,15.999L7.998,15.999z"/>
	</g>
</g>
<path class="fill" fill="#000000" d="M13.531,11h-3.156c0,0-1.422,3.735-3.753,5.193c-0.509,1.271,2.894,1.011,2.894,1.011  s2.287,2.532,2.795,1.261C11.438,16.078,13.531,11,13.531,11z"/>
</svg>
