<?xml version="1.0" encoding="utf-8"?>
<!-- Generator: Adobe Illustrator 16.0.0, SVG Export Plug-In . SVG Version: 6.00 Build 0)  -->
<!DOCTYPE svg PUBLIC "-//W3C//DTD SVG 1.1//EN" "http://www.w3.org/Graphics/SVG/1.1/DTD/svg11.dtd">
<svg version="1.1" id="Layer_1" xmlns="http://www.w3.org/2000/svg" xmlns:xlink="http://www.w3.org/1999/xlink" x="0px" y="0px"
	 width="256px" height="72px" viewBox="0 0 256 72" enable-background="new 0 0 256 72" xml:space="preserve">
<g>
	<g>
		<polyline fill="#FFC805" points="87.004,18.772 91.102,7.883 99.73,5.452 93.792,20.207 87.004,18.772 		"/>
		<polyline fill="#FFC805" points="12.268,47.452 35.56,49.493 45.795,41.297 30.862,28.348 27.765,20.253 50.646,31.782 
			46.052,14.243 57.345,20.524 61.882,31.499 82.265,20.807 73.671,34.44 61.7,40.789 80.312,55.115 89.341,69.235 64.714,54.589 
			35.027,55.613 12.268,47.452 		"/>
		<polyline fill="#FFC805" points="8.851,18.976 11.52,18.976 9.371,20.59 10.198,23.148 8.06,21.573 5.917,23.148 6.76,20.59 
			4.594,18.976 7.254,18.976 8.06,16.48 8.851,18.976 		"/>
		<polyline fill="#FFC805" points="18.97,7.732 21.908,7.732 19.538,9.507 20.456,12.332 18.099,10.592 15.739,12.332 16.667,9.507 
			14.279,7.732 17.211,7.732 18.099,4.985 18.97,7.732 		"/>
		<polyline fill="#FFC805" points="35.124,3.842 39.232,3.842 35.921,6.329 37.208,10.268 33.906,7.84 30.612,10.268 31.91,6.329 
			28.573,3.842 32.669,3.842 33.906,0 35.124,3.842 		"/>
		<polyline fill="#FFC805" points="4.709,45.654 6.807,45.654 5.117,46.918 5.768,48.926 4.088,47.685 2.41,48.926 3.069,46.918 
			1.369,45.654 3.456,45.654 4.088,43.693 4.709,45.654 		"/>
		<polyline fill="#FFC805" points="3.338,32.248 5.439,32.248 3.749,33.514 4.401,35.529 2.721,34.286 1.044,35.529 1.701,33.514 
			0,32.248 2.086,32.248 2.721,30.293 3.338,32.248 		"/>
		<polyline fill="#FFC805" points="10.233,55.221 12.129,55.405 10.496,56.401 10.906,58.278 9.494,57.011 7.867,57.982 
			8.643,56.225 7.21,54.927 9.1,55.113 9.845,53.397 10.233,55.221 		"/>
		<polyline fill="#FFC805" points="19.081,60.267 20.977,60.449 19.338,61.448 19.754,63.323 18.342,62.055 16.708,63.029 
			17.49,61.27 16.058,59.974 17.946,60.156 18.693,58.438 19.081,60.267 		"/>
	</g>
	<path fill="#7AB3D7" d="M183.067,48.413c-2.272,2.516-5.459,3.963-8.604,3.963c-2.174,0-4.052-0.339-5.308-1.059
		c0,0.235-0.241,1.447-0.386,2.122l-3.377,13.616l-5.408,1.259l7.625-33.619c0.629-2.947,0.484-4.493,0-6.041l4.926-2.031
		c0.486,0.972,0.772,2.757,0.537,4.448c2.121-2.561,5.31-4.155,8.203-4.155c4.152,0,6.424,3.092,6.424,7.969
		C187.699,39.234,185.817,45.322,183.067,48.413z M179.152,31.405c-1.927,0-4.444,1.455-6.618,4.547l-2.366,11.112
		c0.774,0.775,2.419,1.251,4.009,1.251c2.178,0,3.865-1.204,4.832-2.606c1.834-2.708,2.942-7.533,2.942-10.626
		C181.951,32.52,181.132,31.405,179.152,31.405"/>
	<path fill="#7AB3D7" d="M210.503,34.257l-1.984,9.664c-0.621,2.945-0.329,4.206,0.873,5.51l-4.35,3.235
		c-1.3-1.065-1.835-2.416-1.835-4.008c-1.735,2.363-4.199,3.765-7.341,3.765c-3.814,0-6.369-2.561-6.369-7.777
		c0-5.412,2.027-10.625,5.163-13.869c2.607-2.654,5.792-3.956,9.705-3.956c2.801,0,5.657,0.575,7.586,1.833
		C211.513,30.009,210.841,32.52,210.503,34.257z M203.743,31.018c-2.17,0-3.716,0.489-5.602,2.707
		c-2.172,2.617-3.189,7.344-3.189,10.777c0,2.655,0.871,3.669,2.656,3.669c2.225,0,4.687-2.22,5.796-4.683l2.609-11.982
		C205.526,31.216,204.56,31.018,203.743,31.018"/>
	<path fill="#7AB3D7" d="M232.524,32.377c-2.025-1.161-3.913-1.69-5.843-1.69c-2.558,0-4.444,0.964-4.444,2.991
		c0,1.307,0.68,2.126,2.609,2.853l2.891,1.111c3.005,1.159,4.981,2.896,4.981,5.8c0,5.018-4.106,9.128-11.306,9.128
		c-3.379,0-6.516-0.969-9.029-2.563l2.123-3.914c2.037,1.406,4.877,2.42,7.637,2.42c2.66,0,4.683-1.5,4.683-3.526
		c0-1.545-0.875-2.319-3.093-3.19l-2.797-1.061c-2.903-1.114-4.589-2.804-4.589-5.85c0-4.25,3.524-8.31,10.669-8.31
		c2.899,0,5.702,0.872,7.637,2.079L232.524,32.377z"/>
	<path fill="#7AB3D7" d="M253.873,32.377c-2.029-1.161-3.905-1.69-5.839-1.69c-2.556,0-4.45,0.964-4.45,2.991
		c0,1.307,0.688,2.126,2.613,2.853l2.901,1.111c2.991,1.159,4.971,2.896,4.971,5.8c0,5.018-4.101,9.128-11.299,9.128
		c-3.383,0-6.523-0.969-9.034-2.563l2.123-3.914c2.031,1.406,4.881,2.42,7.633,2.42c2.658,0,4.688-1.5,4.688-3.526
		c0-1.545-0.872-2.319-3.093-3.19l-2.801-1.061c-2.899-1.114-4.587-2.804-4.587-5.85c0-4.25,3.522-8.31,10.667-8.31
		c2.905,0,5.702,0.872,7.633,2.079L253.873,32.377z"/>
	<path fill="#7AB3D7" d="M102.38,45.201c-0.346,0.833-0.984,2.163-2.214,3.547c-0.693,0.739-2.951,3.244-8.021,3.244
		c-7.766,0-11.166-5.958-11.166-12.503c0-7.771,5.12-12.103,10.823-12.103c7.089,0,10.779,6.198,10.577,12.305H84.177
		c-0.045,1.229,0.052,3.049,0.734,4.875c1.872,4.822,6.252,4.822,7.234,4.822c2.56,0,5.516-0.884,7.527-4.926L102.38,45.201
		 M99.081,37.33c-0.245-2.07-0.882-4.084-2.46-5.562c-0.983-0.89-2.561-1.774-4.867-1.774c-4.032,0-6.986,2.853-7.524,7.336H99.081"
		/>
	<path fill="#7AB3D7" d="M123.545,51.401h-2.896v-4.228c-0.201,0.49-0.539,1.275-1.182,2.112c-1.815,2.262-4.379,2.661-6.248,2.661
		c-4.527,0-6.445-2.859-7.034-4.338c-0.788-1.821-0.835-4.228-0.835-8.165V27.927h2.9v12.156c0.053,5.118,0.053,9.203,5.315,9.203
		c1.322,0,3.293-0.199,4.967-1.969c2.06-2.167,2.117-4.676,2.117-9.055V27.927h2.896V51.401"/>
	<path fill="#7AB3D7" d="M131.084,51.401h-2.848V27.927h2.848v3.742c1.478-3.099,3.938-4.134,6.845-4.134
		c0.684,0,1.029,0.05,1.621,0.144v2.612c-0.884-0.151-0.984-0.151-1.77-0.151c-0.788,0-3.103,0.055-4.826,1.875
		c-1.813,2.015-1.813,4.429-1.87,9.25V51.401"/>
	<path fill="#7AB3D7" d="M149.851,51.992c-6.841,0-10.581-5.412-10.581-12.009c0-6.099,3.101-12.597,10.677-12.597
		c7.429,0,10.577,6.105,10.624,12.156C160.613,46.677,156.488,51.992,149.851,51.992 M149.996,29.849
		c-2.072,0-4.083,0.838-5.414,2.412c-2.017,2.362-2.211,5.852-2.211,7.775c0,6.691,3.44,9.395,7.48,9.395
		c5.159,0,7.57-4.083,7.62-9.542C157.471,38.56,157.572,29.849,149.996,29.849"/>
	<polyline fill="#FFFFFF" points="90.899,7.914 86.112,18.936 93.792,20.207 94.376,18.871 87.218,18.501 92.609,7.322 
		90.899,7.914 	"/>
	<polygon fill="#005AA7" points="90.899,7.914 86.112,18.936 93.792,20.207 94.376,18.871 87.218,18.501 92.609,7.322 	"/>
	<path fill="#FFFFFF" d="M95.207,15.938c0,0,0.022-0.053,0.062-0.153c0.495-1.336,4.107-10.947,4.548-11.4
		c0.482-0.48-2.966,8.367-3.288,8.979"/>
	<path fill="#005AA7" d="M95.207,15.938c0,0,0.022-0.053,0.062-0.153c0.495-1.336,4.107-10.947,4.548-11.4
		c0.482-0.48-2.966,8.367-3.288,8.979"/>
	<path fill="#005AA7" d="M53.665,31.491c-12.363-0.097-28.397-14.968-28.397-14.968c-1.715,13.428,17.369,24.469,17.369,24.469
		c-4.78,8.849-32.69,5.98-32.69,5.98c17.705,13.748,44.324,7.302,44.324,7.302C68.917,56.605,90.244,72,90.244,72
		c3.807-12.308-29.169-30.84-29.169-30.84c18.52-6.188,25.757-22.707,25.757-22.707s-16.389,10.541-24.49,11.325
		c0,0,0.651-13.601-18.318-15.393c0,0,18.883,3.241,16.696,17.762c0,0,11.629-1.68,23.919-11.542c0,0-8.05,13.101-26.903,20.403
		c0,0,29.444,16.534,31.736,29.244c0,0-20.704-16.45-35.206-17.871c0,0-25.283,6.147-41.273-4.395c0,0,25.655,4.722,32.425-7.142
		c0,0-19.627-10.233-19.58-22.729c0,0,17.683,16.607,27.799,15.25L53.665,31.491z"/>
	<path fill="#FFFFFF" d="M42.709,17.26c0,0,2.613,1.22,3.262,1.337c0.653,0.117,2.082-0.348,3.362-0.116
		c1.272,0.233,3.134,1.246,2.915,2.2l-0.831-0.104c0,0-0.888-1.144-2.211-1.418c-1.327-0.275-2.184,0.393-3.31,0.152
		C44.128,18.942,42.709,17.26,42.709,17.26"/>
	<path fill="#005AA7" d="M42.709,17.26c0,0,2.613,1.22,3.262,1.337c0.653,0.117,2.082-0.348,3.362-0.116
		c1.272,0.233,3.134,1.246,2.915,2.2l-0.831-0.104c0,0-0.888-1.144-2.211-1.418c-1.327-0.275-2.184,0.393-3.31,0.152
		C44.128,18.942,42.709,17.26,42.709,17.26z"/>
	<path fill="#FFFFFF" d="M50.747,22.221l1.011,0.235c0,0-0.17-1.573-2.342-2.036c-1.511-0.331-2.231,0.109-2.842,0.322
		c-0.606,0.211-1.376,0.866-3.799-0.783c0,0,1.196,1.91,3.505,1.688c1.446-0.14,1.088-0.758,2.982-0.411
		C50.786,21.514,50.747,22.221,50.747,22.221"/>
	<path fill="#005AA7" d="M50.747,22.221l1.011,0.235c0,0-0.17-1.573-2.342-2.036c-1.511-0.331-2.231,0.109-2.842,0.322
		c-0.606,0.211-1.376,0.866-3.799-0.783c0,0,1.196,1.91,3.505,1.688c1.446-0.14,1.088-0.758,2.982-0.411
		C50.786,21.514,50.747,22.221,50.747,22.221z"/>
	<path fill="#FFFFFF" d="M42.596,22.472c0,0,1.872,1.473,3.258,1.156c1.38-0.317,2.928-1.088,4.34,0.317
		c0,0-1.661-0.771-2.699-0.033c-0.917,0.661-2.288,0.741-3.471,0.02C42.835,23.205,42.596,22.472,42.596,22.472"/>
	<path fill="#005AA7" d="M42.596,22.472c0,0,1.872,1.473,3.258,1.156c1.38-0.317,2.928-1.088,4.34,0.317
		c0,0-1.661-0.771-2.699-0.033c-0.917,0.661-2.288,0.741-3.471,0.02C42.835,23.205,42.596,22.472,42.596,22.472z"/>
	<path fill="#FFFFFF" d="M57.614,23.755c-0.081,0.367-0.446,0.599-0.812,0.509c-0.367-0.08-0.602-0.45-0.513-0.813
		c0.081-0.367,0.445-0.598,0.818-0.515C57.47,23.024,57.701,23.387,57.614,23.755"/>
	<path fill="#005AA7" d="M57.614,23.755c-0.081,0.367-0.446,0.599-0.812,0.509c-0.367-0.08-0.602-0.45-0.513-0.813
		c0.081-0.367,0.445-0.598,0.818-0.515C57.47,23.024,57.701,23.387,57.614,23.755z"/>
	<path fill="#FFFFFF" d="M60.986,27.004c-0.438,0.273-1.035,0.672-1.688,0.677c-1.163,0.016-2.143-0.098-2.44-0.809
		c0,0.017-0.002,0.029-0.004,0.046c0.008,0.923,1.146,1.66,2.547,1.641c0.614-0.005,1.174-0.156,1.605-0.397L60.986,27.004"/>
	<path fill="#005AA7" d="M60.986,27.004c-0.438,0.273-1.035,0.672-1.688,0.677c-1.163,0.016-2.143-0.098-2.44-0.809
		c0,0.017-0.002,0.029-0.004,0.046c0.008,0.923,1.146,1.66,2.547,1.641c0.614-0.005,1.174-0.156,1.605-0.397L60.986,27.004z"/>
</g>
</svg>
