<?xml version="1.0" encoding="UTF-8" standalone="no"?>
<!-- Generator: Adobe Illustrator 15.0.0, SVG Export Plug-In . SVG Version: 6.00 Build 0)  -->

<svg
   xmlns:dc="http://purl.org/dc/elements/1.1/"
   xmlns:cc="http://creativecommons.org/ns#"
   xmlns:rdf="http://www.w3.org/1999/02/22-rdf-syntax-ns#"
   xmlns:svg="http://www.w3.org/2000/svg"
   xmlns="http://www.w3.org/2000/svg"
   xmlns:sodipodi="http://sodipodi.sourceforge.net/DTD/sodipodi-0.dtd"
   xmlns:inkscape="http://www.inkscape.org/namespaces/inkscape"
   version="1.1"
   id="category_C1"
   class="drivinglicence"
   x="0px"
   y="0px"
   width="26"
   height="20"
   viewBox="0 0 26 20"
   enable-background="new 0 0 26 20"
   xml:space="preserve"
   inkscape:version="0.48.2 r9819"
   sodipodi:docname="category_c1.svg"><metadata
   id="metadata31"><rdf:RDF><cc:Work
       rdf:about=""><dc:format>image/svg+xml</dc:format><dc:type
         rdf:resource="http://purl.org/dc/dcmitype/StillImage" /></cc:Work></rdf:RDF></metadata><defs
   id="defs29" /><sodipodi:namedview
   pagecolor="#ffffff"
   bordercolor="#666666"
   borderopacity="1"
   objecttolerance="10"
   gridtolerance="10"
   guidetolerance="10"
   inkscape:pageopacity="0"
   inkscape:pageshadow="2"
   inkscape:window-width="1366"
   inkscape:window-height="706"
   id="namedview27"
   showgrid="false"
   inkscape:zoom="20.976562"
   inkscape:cx="14.052598"
   inkscape:cy="5.1496644"
   inkscape:window-x="-8"
   inkscape:window-y="-8"
   inkscape:window-maximized="1"
   inkscape:current-layer="category_C1"
   showguides="true"
   inkscape:guide-bbox="true"><sodipodi:guide
     orientation="1,0"
     position="36,30.1"
     id="guide2995" /></sodipodi:namedview>
<g
   id="g15"
   transform="matrix(-1,0,0,1,26.025,-5.85)">
	<circle
   cx="6.5"
   cy="23.5"
   r="2.313"
   id="circle17"
   sodipodi:cx="6.5"
   sodipodi:cy="23.5"
   sodipodi:rx="2.313"
   sodipodi:ry="2.313"
   class="fill"
   style="fill:#000000"
   d="m 8.813,23.5 c 0,1.277435 -1.0355654,2.313 -2.313,2.313 -1.2774346,0 -2.313,-1.035565 -2.313,-2.313 0,-1.277435 1.0355654,-2.313 2.313,-2.313 1.2774346,0 2.313,1.035565 2.313,2.313 z" />
</g>
<g
   id="g19"
   transform="matrix(-1,0,0,1,26.025,-5.85)">
	<circle
   cx="20.5"
   cy="23.5"
   r="2.313"
   id="circle21"
   sodipodi:cx="20.5"
   sodipodi:cy="23.5"
   sodipodi:rx="2.313"
   sodipodi:ry="2.313"
   class="fill"
   style="fill:#000000"
   d="m 22.813,23.5 c 0,1.277435 -1.035565,2.313 -2.313,2.313 -1.277435,0 -2.313,-1.035565 -2.313,-2.313 0,-1.277435 1.035565,-2.313 2.313,-2.313 1.277435,0 2.313,1.035565 2.313,2.313 z" />
</g>
<path
   d="M 0.791,9.13 3.025,6.15 c 0.457,-0.551 0.766,-1 1.5,-1 h 4.5 c 0.551,0 1,0.449 1,1 v 10 c 0,0.549 -0.446,0.995 -0.994,0.999 -0.246,-1.723 -1.717,-3.056 -3.506,-3.056 -1.79,0 -3.261,1.334 -3.506,3.057 H 1.025 c -0.551,0 -1,-0.449 -1,-1 0,0 0,-4.053 0,-5 0,-0.947 0.766,-2.02 0.766,-2.02 z m 6.234,2.02 v -4 H 4.579 C 4.418,7.15 4.194,7.386 4.194,7.386 L 2.089,10.3 C 1.902,10.574 1.7,10.9 1.7,11.15 h 5.325 z"
   id="path23"
   inkscape:connector-curvature="0"
   class="fill"
   style="fill:#000000" />
<path
   d="m 12.025,1.15 h 13 c 0.551,0 1,0.449 1,1 v 14 c 0,0.551 -0.449,1 -1,1 h -1.994 c -0.245,-1.723 -1.716,-3.057 -3.506,-3.057 -1.79,0 -3.261,1.334 -3.506,3.057 h -3.994 c -0.551,0 -1,-0.449 -1,-1 v -14 c 0,-0.551 0.449,-1 1,-1 z"
   id="path25"
   inkscape:connector-curvature="0"
   class="fill"
   style="fill:#000000" />

</svg>