<?xml version="1.0" encoding="UTF-8" standalone="no"?>
<!-- Generator: Adobe Illustrator 15.0.0, SVG Export Plug-In . SVG Version: 6.00 Build 0)  -->

<svg
   xmlns:dc="http://purl.org/dc/elements/1.1/"
   xmlns:cc="http://creativecommons.org/ns#"
   xmlns:rdf="http://www.w3.org/1999/02/22-rdf-syntax-ns#"
   xmlns:svg="http://www.w3.org/2000/svg"
   xmlns="http://www.w3.org/2000/svg"
   xmlns:sodipodi="http://sodipodi.sourceforge.net/DTD/sodipodi-0.dtd"
   xmlns:inkscape="http://www.inkscape.org/namespaces/inkscape"
   version="1.1"
   id="category_B"
   class="drivinglicence"
   x="0px"
   y="0px"
   width="26"
   height="20"
   viewBox="0 0 26 20"
   enable-background="new 0 0 26 20"
   xml:space="preserve"
   inkscape:version="0.48.2 r9819"
   sodipodi:docname="category_b.svg"><metadata
   id="metadata29"><rdf:RDF><cc:Work
       rdf:about=""><dc:format>image/svg+xml</dc:format><dc:type
         rdf:resource="http://purl.org/dc/dcmitype/StillImage" /><dc:title /></cc:Work></rdf:RDF></metadata><defs
   id="defs27" /><sodipodi:namedview
   pagecolor="#ffffff"
   bordercolor="#666666"
   borderopacity="1"
   objecttolerance="10"
   gridtolerance="10"
   guidetolerance="10"
   inkscape:pageopacity="0"
   inkscape:pageshadow="2"
   inkscape:window-width="1366"
   inkscape:window-height="706"
   id="namedview25"
   showgrid="false"
   inkscape:zoom="20.976562"
   inkscape:cx="4.5268583"
   inkscape:cy="10.571347"
   inkscape:window-x="-8"
   inkscape:window-y="-8"
   inkscape:window-maximized="1"
   inkscape:current-layer="category_B"
   showguides="true"
   inkscape:guide-bbox="true" />
<g
   id="g15"
   transform="translate(0.025,-5.85)">
	<circle
   cx="19.5"
   cy="23.5"
   r="2.313"
   id="circle17"
   d="m 21.813,23.5 c 0,1.277435 -1.035565,2.313 -2.313,2.313 -1.277435,0 -2.313,-1.035565 -2.313,-2.313 0,-1.277435 1.035565,-2.313 2.313,-2.313 1.277435,0 2.313,1.035565 2.313,2.313 z"
   sodipodi:cx="19.5"
   sodipodi:cy="23.5"
   sodipodi:rx="2.313"
   sodipodi:ry="2.313"
   class="fill"
   style="fill:#000000" />
</g>
<g
   id="g19"
   transform="translate(0.025,-5.85)">
	<circle
   cx="6.5"
   cy="23.5"
   r="2.313"
   id="circle21"
   d="m 8.813,23.5 c 0,1.277435 -1.0355654,2.313 -2.313,2.313 -1.2774346,0 -2.313,-1.035565 -2.313,-2.313 0,-1.277435 1.0355654,-2.313 2.313,-2.313 1.2774346,0 2.313,1.035565 2.313,2.313 z"
   sodipodi:cx="6.5"
   sodipodi:cy="23.5"
   sodipodi:rx="2.313"
   sodipodi:ry="2.313"
   class="fill"
   style="fill:#000000" />
</g>
<path
   d="M 5.025,10.15 C 5.916,10.15 5.9,10.166 6.798,9.094 7.616,8.118 9.502,5.788 9.502,5.788 9.797,5.428 10.474,5.15 11.025,5.15 h 7 c 0.551,0 1.098,0.278 1.224,0.639 0,0 1.835,2.383 2.571,3.364 0.736,0.981 0.721,0.997 1.628,0.997 0.577,0 1.577,0 1.577,0 0.551,0 1,0.449 1,1 v 5 c 0,0.551 -0.449,1 -1,1 h -1.994 c -0.245,-1.723 -1.716,-3.057 -3.506,-3.057 -1.79,0 -3.261,1.334 -3.506,3.057 H 10.031 C 9.786,15.427 8.315,14.093 6.525,14.093 c -1.79,0 -3.261,1.334 -3.506,3.057 H 1.025 c -0.551,0 -1,-0.449 -1,-1 v -2 c 0,-0.993 1.027,-4 5,-4 z m 15.152,0 -2.067,-2.754 c 0,0 -0.296,-0.246 -0.429,-0.246 h -2.656 v 3 h 5.152 z m -7.152,0 v -3 h -1.649 c -0.301,0 -0.666,0.177 -0.748,0.271 L 8.403,10.15 h 4.622 z"
   id="path23"
   inkscape:connector-curvature="0"
   class="fill"
   style="fill:#000000" />

</svg>