<?xml version="1.0" encoding="UTF-8" standalone="no"?>
<!-- Generator: Adobe Illustrator 15.0.0, SVG Export Plug-In . SVG Version: 6.00 Build 0)  -->

<svg
   xmlns:dc="http://purl.org/dc/elements/1.1/"
   xmlns:cc="http://creativecommons.org/ns#"
   xmlns:rdf="http://www.w3.org/1999/02/22-rdf-syntax-ns#"
   xmlns:svg="http://www.w3.org/2000/svg"
   xmlns="http://www.w3.org/2000/svg"
   xmlns:sodipodi="http://sodipodi.sourceforge.net/DTD/sodipodi-0.dtd"
   xmlns:inkscape="http://www.inkscape.org/namespaces/inkscape"
   version="1.1"
   id="category_A1"
   class="drivinglicence"
   x="0px"
   y="0px"
   width="26"
   height="20"
   viewBox="0 0 26 20"
   enable-background="new 0 0 26 20"
   xml:space="preserve"
   inkscape:version="0.48.2 r9819"
   sodipodi:docname="category_a.svg"><metadata
   id="metadata29"><rdf:RDF><cc:Work
       rdf:about=""><dc:format>image/svg+xml</dc:format><dc:type
         rdf:resource="http://purl.org/dc/dcmitype/StillImage" /><dc:title /></cc:Work></rdf:RDF></metadata><defs
   id="defs27" /><sodipodi:namedview
   pagecolor="#ffffff"
   bordercolor="#666666"
   borderopacity="1"
   objecttolerance="10"
   gridtolerance="10"
   guidetolerance="10"
   inkscape:pageopacity="0"
   inkscape:pageshadow="2"
   inkscape:window-width="1366"
   inkscape:window-height="706"
   id="namedview25"
   showgrid="false"
   inkscape:zoom="10"
   inkscape:cx="12.309875"
   inkscape:cy="6.6252519"
   inkscape:window-x="-8"
   inkscape:window-y="-8"
   inkscape:window-maximized="1"
   inkscape:current-layer="category_A"
   showguides="true"
   inkscape:guide-bbox="true"><sodipodi:guide
     orientation="0,1"
     position="-39.6,27.7"
     id="guide3003" /></sodipodi:namedview>
   <g
   id="g3028"
   transform="translate(-67.05,3.15)"><g
   id="g15"
   transform="matrix(-1,0,0,1,92.88802,-8.98207)"><path
     id="path17"
     d="m 22,19.787 c 1.22,0 2.213,0.993 2.213,2.213 0,1.22 -0.993,2.213 -2.213,2.213 -1.22,0 -2.213,-0.993 -2.213,-2.213 0,-1.22 0.993,-2.213 2.213,-2.213 m 0,-1.599 c -2.105,0 -3.813,1.707 -3.813,3.813 0,2.106 1.707,3.813 3.813,3.813 2.106,0 3.813,-1.707 3.813,-3.813 0,-2.106 -1.708,-3.813 -3.813,-3.813 l 0,0 z"
     inkscape:connector-curvature="0"
     class="fill"
     style="fill:#000000" /></g><g
   id="g19"
   transform="matrix(-1,0,0,1,92.88802,-8.98207)"><path
     id="path21"
     d="m 4.5,18.997 c 1.38,0 2.503,1.123 2.503,2.503 0,1.38 -1.123,2.503 -2.503,2.503 -1.38,0 -2.503,-1.123 -2.503,-2.503 0,-1.38 1.123,-2.503 2.503,-2.503 m 0,-1.809 c -2.382,0 -4.313,1.931 -4.313,4.313 0,2.382 1.931,4.313 4.313,4.313 2.382,0 4.313,-1.931 4.313,-4.313 0,-2.382 -1.931,-4.313 -4.313,-4.313 l 0,0 z"
     inkscape:connector-curvature="0"
     class="fill"
     style="fill:#000000" /></g><path
   id="path23"
   d="m 79.38802,2.51793 c -1.135,-0.899 -2.52,-1.379 -2.52,-1.379 0,0 -1.757,7.379 -5.98,11.879"
   stroke-miterlimit="10"
   inkscape:connector-curvature="0"
   class="stroke"
   style="fill:none;stroke:#000000;stroke-width:1.5;stroke-linecap:round;stroke-linejoin:round;stroke-miterlimit:10" /><path
   id="path25"
   d="m 75.30802,12.91293 c -0.795,0 -0.071,-1.399 -2.813,-2.66 -1.529,-0.703 -3.027,-0.306 -4.372,-0.306 -0.307,0 0.278,-1.81 3.368,-1.81 1.921,0 3.267,1.351 3.878,2.849 0.278,0.679 0.377,1.927 -0.061,1.927 z"
   inkscape:connector-curvature="0"
   class="fill"
   style="fill:#000000" /><path
   id="path27"
   d="m 76.19902,2.01793 h -1.513 c 0,0 -0.735,0.016 -1.001,0.766 -0.165,0.466 -0.594,1.844 -0.625,2.391 -0.062,1.083 1.688,0.781 1.688,0.781 0,0 2.182,3.116 1.937,7.014 -0.051,1.127 4.9,1.64 6.048,0.07 0.141,-1.826 0.658,-3.578 1.922,-4.49 1.14,-0.822 2.531,-1.563 6.875,-1.563 1.134,0 1.192,-0.862 1.192,-0.862 0,0 -0.392,-1.107 -3.818,-1.107 -2.367,0 -1.943,0.406 -2.513,1.437 -0.376,0.681 -1.171,0.614 -3.447,0.614 -0.941,0 0.169,-3.005 -6.091,-3.005 -0.781,0 -0.716,-1.481 -0.654,-2.046 z"
   inkscape:connector-curvature="0"
   class="fill"
   style="fill:#000000" /><line
   id="line29"
   y2="12.517944"
   x2="78.87001"
   y1="12.517944"
   x1="88.388016"
   stroke-miterlimit="10"
   class="stroke"
   style="fill:none;stroke:#000000;stroke-width:1.60000002;stroke-linecap:round;stroke-linejoin:round;stroke-miterlimit:10" /><line
   id="line31"
   y2="12.517944"
   x2="88.388016"
   y1="8.5179443"
   x1="81.388016"
   stroke-miterlimit="10"
   class="stroke"
   style="fill:none;stroke:#000000;stroke-width:1.60000002;stroke-linecap:round;stroke-linejoin:round;stroke-miterlimit:10" /></g>
</svg>