<?xml version="1.0" encoding="utf-8"?>
<!-- Generator: Adobe Illustrator 17.1.0, SVG Export Plug-In . SVG Version: 6.00 Build 0)  -->
<!DOCTYPE svg PUBLIC "-//W3C//DTD SVG 1.1//EN" "http://www.w3.org/Graphics/SVG/1.1/DTD/svg11.dtd">
<svg xmlns="http://www.w3.org/2000/svg" xmlns:xlink="http://www.w3.org/1999/xlink" version="1.1" class="drivinglicence" id="infoicon" x="0px" y="0px" viewBox="0 0 26 26" enable-background="new 0 0 26 26" xml:space="preserve">
<rect class="fill" x="902" y="1469" fill="#000000" width="26" height="2"/>
<rect class="fill" x="902" y="1489" fill="#000000" width="26" height="2"/>
<rect class="fill" x="906" y="1474" fill="#000000" width="18" height="2"/>
<rect class="fill" x="902" y="1479" fill="#000000" width="26" height="2"/>
<rect class="fill" x="906" y="1484" fill="#000000" width="18" height="2"/>
<rect class="stroke" x="902" y="1467" fill="none" width="26" height="26"/>
<polygon class="fill" fill="#000000" points="12.4,12.9 21.3,9.1 21.4,9.2 13.6,15.1 "/>
<path class="fill" fill="#000000" d="M13,12.2c-1,0-1.8,0.8-1.8,1.8s0.8,1.8,1.8,1.8s1.8-0.8,1.8-1.8S14,12.2,13,12.2z"/>
<path class="stroke" fill="none" stroke="#000000" stroke-width="2" stroke-linecap="round" stroke-linejoin="round" stroke-miterlimit="10" d="  M23,20.7c1.3-1.9,2-4.2,2-6.7c0-6.6-5.4-12-12-12S1,7.4,1,14c0,2.5,0.7,4.8,2,6.7"/>
<line class="stroke" fill="none" stroke="#000000" stroke-width="1.6" stroke-linecap="round" stroke-linejoin="round" stroke-miterlimit="10" x1="13" y1="3.2" x2="13" y2="4.5"/>
<line class="stroke" fill="none" stroke="#000000" stroke-width="1.6" stroke-linecap="round" stroke-linejoin="round" stroke-miterlimit="10" x1="23.8" y1="14" x2="22.5" y2="14"/>
<line class="stroke" fill="none" stroke="#000000" stroke-width="1.6" stroke-linecap="round" stroke-linejoin="round" stroke-miterlimit="10" x1="2.2" y1="14" x2="3.5" y2="14"/>
<line class="stroke" fill="none" stroke="#000000" stroke-width="1.6" stroke-linecap="round" stroke-linejoin="round" stroke-miterlimit="10" x1="7.6" y1="4.7" x2="8.2" y2="5.8"/>
<line class="stroke" fill="none" stroke="#000000" stroke-width="1.6" stroke-linecap="round" stroke-linejoin="round" stroke-miterlimit="10" x1="3.7" y1="19.4" x2="4.8" y2="18.8"/>
<line class="stroke" fill="none" stroke="#000000" stroke-width="1.6" stroke-linecap="round" stroke-linejoin="round" stroke-miterlimit="10" x1="3.7" y1="8.6" x2="4.8" y2="9.2"/>
<line class="stroke" fill="none" stroke="#000000" stroke-width="1.6" stroke-linecap="round" stroke-linejoin="round" stroke-miterlimit="10" x1="22.3" y1="19.4" x2="21.2" y2="18.8"/>
<line class="stroke" fill="none" stroke="#000000" stroke-width="1.6" stroke-linecap="round" stroke-linejoin="round" stroke-miterlimit="10" x1="18.4" y1="4.7" x2="17.8" y2="5.8"/>
<polygon class="stroke" fill="#000000" stroke="#000000" stroke-width="2" stroke-linecap="round" stroke-linejoin="round" stroke-miterlimit="10" points="  9,22 17,22 17,24 13.2,24 9,24 "/>
</svg>
