<?xml version="1.0" encoding="utf-8"?>
<!-- Generator: Adobe Illustrator 15.0.0, SVG Export Plug-In . SVG Version: 6.00 Build 0)  -->
<!DOCTYPE svg PUBLIC "-//W3C//DTD SVG 1.1//EN" "http://www.w3.org/Graphics/SVG/1.1/DTD/svg11.dtd">
<svg xmlns="http://www.w3.org/2000/svg" xmlns:xlink="http://www.w3.org/1999/xlink" version="1.1" class="drivinglicence" id="infoicon" x="0px" y="0px" width="26px" height="26px" viewBox="0 0 26 26" enable-background="new 0 0 26 26" xml:space="preserve">
    <path class="fill" fill="#000000" d="M25.8,12.5c-0.1-0.1-2.9-3.1-5.7-5c-0.2-0.1-0.5-0.2-0.7,0C19.2,7.6,19,7.8,19,8.1V11H7V8.1c0-0.3-0.1-0.5-0.4-0.6 c-0.2-0.1-0.5-0.1-0.7,0c-2.8,1.9-5.6,4.9-5.7,5C0.1,12.7,0,12.9,0,13s0.1,0.3,0.2,0.4c0.1,0.1,2.9,3.1,5.7,5c0.2,0.1,0.5,0.2,0.7,0 C6.8,18.4,7,18.2,7,17.9V15h12v2.9c0,0.3,0.1,0.5,0.4,0.6c0.2,0.1,0.5,0.1,0.7,0c2.8-1.9,5.6-4.9,5.7-5c0.1-0.1,0.2-0.3,0.2-0.4 S25.9,12.7,25.8,12.5z"/>
</svg>